<?xml version="1.0" encoding="utf-8" standalone="no"?>
<!DOCTYPE svg PUBLIC "-//W3C//DTD SVG 1.1//EN"
  "http://www.w3.org/Graphics/SVG/1.1/DTD/svg11.dtd">
<svg xmlns:xlink="http://www.w3.org/1999/xlink" width="530.097031pt" height="319.663641pt" viewBox="0 0 530.097031 319.663641" xmlns="http://www.w3.org/2000/svg" version="1.1">
 <metadata>
  <rdf:RDF xmlns:dc="http://purl.org/dc/elements/1.1/" xmlns:cc="http://creativecommons.org/ns#" xmlns:rdf="http://www.w3.org/1999/02/22-rdf-syntax-ns#">
   <cc:Work>
    <dc:type rdf:resource="http://purl.org/dc/dcmitype/StillImage"/>
    <dc:format>image/svg+xml</dc:format>
    <dc:creator>
     <cc:Agent>
      <dc:title>Matplotlib v3.11.1, https://matplotlib.org/</dc:title>
     </cc:Agent>
    </dc:creator>
   </cc:Work>
  </rdf:RDF>
 </metadata>
 <defs>
  <style type="text/css">*{stroke-linejoin: round; stroke-linecap: butt}</style>
 </defs>
 <g id="figure_1">
  <g id="patch_1">
   <path d="M 0 319.663641 
L 530.097031 319.663641 
L 530.097031 0 
L 0 0 
L 0 319.663641 
z
" style="fill: none"/>
  </g>
  <g id="axes_1">
   <g id="patch_2">
    <path d="M 41.241484 280.403562 
L 521.121484 280.403562 
L 521.121484 25.379562 
L 41.241484 25.379562 
L 41.241484 280.403562 
z
" style="fill: none"/>
   </g>
   <g id="FillBetweenPolyCollection_1">
    <defs>
     <path id="m37c6933732" d="M 63.054212 -274.936837 
L 63.054212 -274.781751 
L 208.472393 -273.340163 
L 353.890575 -268.595963 
L 499.308757 -240.335196 
L 499.308757 -240.839223 
L 499.308757 -240.839223 
L 353.890575 -268.68408 
L 208.472393 -273.713778 
L 63.054212 -274.936837 
z
"/>
    </defs>
    <g clip-path="url(#p6b3f9d1754)">
     <use xlink:href="#m37c6933732" x="0" y="319.663641" style="fill: #7aa7c7; fill-opacity: 0.13"/>
    </g>
   </g>
   <g id="FillBetweenPolyCollection_2">
    <defs>
     <path id="m5544019ca2" d="M 63.054212 -288.993203 
L 63.054212 -288.630162 
L 208.472393 -285.479111 
L 353.890575 -272.518916 
L 499.308757 -227.491314 
L 499.308757 -228.034113 
L 499.308757 -228.034113 
L 353.890575 -272.712773 
L 208.472393 -285.574277 
L 63.054212 -288.993203 
z
"/>
    </defs>
    <g clip-path="url(#p6b3f9d1754)">
     <use xlink:href="#m5544019ca2" x="0" y="319.663641" style="fill: #8e959c; fill-opacity: 0.13"/>
    </g>
   </g>
   <g id="FillBetweenPolyCollection_3">
    <defs>
     <path id="mf1c689494b" d="M 63.054212 -288.986153 
L 63.054212 -288.566718 
L 208.472393 -285.521407 
L 353.890575 -272.409652 
L 499.308757 -227.290409 
L 499.308757 -227.974194 
L 499.308757 -227.974194 
L 353.890575 -272.621131 
L 208.472393 -285.641246 
L 63.054212 -288.986153 
z
"/>
    </defs>
    <g clip-path="url(#p6b3f9d1754)">
     <use xlink:href="#mf1c689494b" x="0" y="319.663641" style="fill: #d96560; fill-opacity: 0.13"/>
    </g>
   </g>
   <g id="FillBetweenPolyCollection_4">
    <defs>
     <path id="m1487093922" d="M 63.054212 -291.093903 
L 63.054212 -290.55463 
L 208.472393 -288.549095 
L 353.890575 -279.501279 
L 499.308757 -251.998314 
L 499.308757 -252.132251 
L 499.308757 -252.132251 
L 353.890575 -280.43179 
L 208.472393 -288.746476 
L 63.054212 -291.093903 
z
"/>
    </defs>
    <g clip-path="url(#p6b3f9d1754)">
     <use xlink:href="#m1487093922" x="0" y="319.663641" style="fill: #e07a42; fill-opacity: 0.13"/>
    </g>
   </g>
   <g id="matplotlib.axis_1">
    <g id="xtick_1">
     <g id="line2d_1">
      <defs>
       <path id="mf18904413a" d="M 0 0 
L 0 3.5 
" style="stroke: #969da5; stroke-width: 0.8"/>
      </defs>
      <g>
       <use xlink:href="#mf18904413a" x="63.054212" y="280.403562" style="fill: #969da5; stroke: #969da5; stroke-width: 0.8"/>
      </g>
     </g>
     <g id="text_1">
      <text style="font-size: 10px; font-family: 'DejaVu Sans Mono', 'Bitstream Vera Sans Mono', 'Computer Modern Typewriter', 'Andale Mono', 'Nimbus Mono L', 'Courier New', 'Courier', 'Fixed', 'Terminal', monospace; text-anchor: middle; fill: #969da5" x="63.054212" y="295.001219" transform="rotate(-0 63.054212 295.001219)">512</text>
     </g>
    </g>
    <g id="xtick_2">
     <g id="line2d_2">
      <g>
       <use xlink:href="#mf18904413a" x="208.472393" y="280.403562" style="fill: #969da5; stroke: #969da5; stroke-width: 0.8"/>
      </g>
     </g>
     <g id="text_2">
      <text style="font-size: 10px; font-family: 'DejaVu Sans Mono', 'Bitstream Vera Sans Mono', 'Computer Modern Typewriter', 'Andale Mono', 'Nimbus Mono L', 'Courier New', 'Courier', 'Fixed', 'Terminal', monospace; text-anchor: middle; fill: #969da5" x="208.472393" y="295.002" transform="rotate(-0 208.472393 295.002)">2k</text>
     </g>
    </g>
    <g id="xtick_3">
     <g id="line2d_3">
      <g>
       <use xlink:href="#mf18904413a" x="353.890575" y="280.403562" style="fill: #969da5; stroke: #969da5; stroke-width: 0.8"/>
      </g>
     </g>
     <g id="text_3">
      <text style="font-size: 10px; font-family: 'DejaVu Sans Mono', 'Bitstream Vera Sans Mono', 'Computer Modern Typewriter', 'Andale Mono', 'Nimbus Mono L', 'Courier New', 'Courier', 'Fixed', 'Terminal', monospace; text-anchor: middle; fill: #969da5" x="353.890575" y="295.002" transform="rotate(-0 353.890575 295.002)">8k</text>
     </g>
    </g>
    <g id="xtick_4">
     <g id="line2d_4">
      <g>
       <use xlink:href="#mf18904413a" x="499.308757" y="280.403562" style="fill: #969da5; stroke: #969da5; stroke-width: 0.8"/>
      </g>
     </g>
     <g id="text_4">
      <text style="font-size: 10px; font-family: 'DejaVu Sans Mono', 'Bitstream Vera Sans Mono', 'Computer Modern Typewriter', 'Andale Mono', 'Nimbus Mono L', 'Courier New', 'Courier', 'Fixed', 'Terminal', monospace; text-anchor: middle; fill: #969da5" x="499.308757" y="295.002" transform="rotate(-0 499.308757 295.002)">32k</text>
     </g>
    </g>
    <g id="text_5">
     <text style="font-size: 11px; font-family: 'DejaVu Sans Mono', 'Bitstream Vera Sans Mono', 'Computer Modern Typewriter', 'Andale Mono', 'Nimbus Mono L', 'Courier New', 'Courier', 'Fixed', 'Terminal', monospace; text-anchor: middle; fill: #dfe2e5" x="281.181484" y="309.821062" transform="rotate(-0 281.181484 309.821062)">prompt tokens in context (output fixed at 64) — same GGUF file everywhere</text>
    </g>
   </g>
   <g id="matplotlib.axis_2">
    <g id="ytick_1">
     <g id="line2d_5">
      <path d="M 41.241484 280.403562 
L 521.121484 280.403562 
" clip-path="url(#p6b3f9d1754)" style="fill: none; stroke: #2b3138; stroke-width: 0.7; stroke-linecap: square"/>
     </g>
     <g id="line2d_6">
      <defs>
       <path id="md01521d059" d="M 0 0 
L -3.5 0 
" style="stroke: #969da5; stroke-width: 0.8"/>
      </defs>
      <g>
       <use xlink:href="#md01521d059" x="41.241484" y="280.403562" style="fill: #969da5; stroke: #969da5; stroke-width: 0.8"/>
      </g>
     </g>
     <g id="text_6">
      <text style="font-size: 10px; font-family: 'DejaVu Sans Mono', 'Bitstream Vera Sans Mono', 'Computer Modern Typewriter', 'Andale Mono', 'Nimbus Mono L', 'Courier New', 'Courier', 'Fixed', 'Terminal', monospace; text-anchor: end; fill: #969da5" x="34.241484" y="284.202391" transform="rotate(-0 34.241484 284.202391)">0</text>
     </g>
    </g>
    <g id="ytick_2">
     <g id="line2d_7">
      <path d="M 41.241484 245.156908 
L 521.121484 245.156908 
" clip-path="url(#p6b3f9d1754)" style="fill: none; stroke: #2b3138; stroke-width: 0.7; stroke-linecap: square"/>
     </g>
     <g id="line2d_8">
      <g>
       <use xlink:href="#md01521d059" x="41.241484" y="245.156908" style="fill: #969da5; stroke: #969da5; stroke-width: 0.8"/>
      </g>
     </g>
     <g id="text_7">
      <text style="font-size: 10px; font-family: 'DejaVu Sans Mono', 'Bitstream Vera Sans Mono', 'Computer Modern Typewriter', 'Andale Mono', 'Nimbus Mono L', 'Courier New', 'Courier', 'Fixed', 'Terminal', monospace; text-anchor: end; fill: #969da5" x="34.241484" y="248.955736" transform="rotate(-0 34.241484 248.955736)">10</text>
     </g>
    </g>
    <g id="ytick_3">
     <g id="line2d_9">
      <path d="M 41.241484 209.910253 
L 521.121484 209.910253 
" clip-path="url(#p6b3f9d1754)" style="fill: none; stroke: #2b3138; stroke-width: 0.7; stroke-linecap: square"/>
     </g>
     <g id="line2d_10">
      <g>
       <use xlink:href="#md01521d059" x="41.241484" y="209.910253" style="fill: #969da5; stroke: #969da5; stroke-width: 0.8"/>
      </g>
     </g>
     <g id="text_8">
      <text style="font-size: 10px; font-family: 'DejaVu Sans Mono', 'Bitstream Vera Sans Mono', 'Computer Modern Typewriter', 'Andale Mono', 'Nimbus Mono L', 'Courier New', 'Courier', 'Fixed', 'Terminal', monospace; text-anchor: end; fill: #969da5" x="34.241484" y="213.709081" transform="rotate(-0 34.241484 213.709081)">20</text>
     </g>
    </g>
    <g id="ytick_4">
     <g id="line2d_11">
      <path d="M 41.241484 174.663598 
L 521.121484 174.663598 
" clip-path="url(#p6b3f9d1754)" style="fill: none; stroke: #2b3138; stroke-width: 0.7; stroke-linecap: square"/>
     </g>
     <g id="line2d_12">
      <g>
       <use xlink:href="#md01521d059" x="41.241484" y="174.663598" style="fill: #969da5; stroke: #969da5; stroke-width: 0.8"/>
      </g>
     </g>
     <g id="text_9">
      <text style="font-size: 10px; font-family: 'DejaVu Sans Mono', 'Bitstream Vera Sans Mono', 'Computer Modern Typewriter', 'Andale Mono', 'Nimbus Mono L', 'Courier New', 'Courier', 'Fixed', 'Terminal', monospace; text-anchor: end; fill: #969da5" x="34.241484" y="178.462426" transform="rotate(-0 34.241484 178.462426)">30</text>
     </g>
    </g>
    <g id="ytick_5">
     <g id="line2d_13">
      <path d="M 41.241484 139.416943 
L 521.121484 139.416943 
" clip-path="url(#p6b3f9d1754)" style="fill: none; stroke: #2b3138; stroke-width: 0.7; stroke-linecap: square"/>
     </g>
     <g id="line2d_14">
      <g>
       <use xlink:href="#md01521d059" x="41.241484" y="139.416943" style="fill: #969da5; stroke: #969da5; stroke-width: 0.8"/>
      </g>
     </g>
     <g id="text_10">
      <text style="font-size: 10px; font-family: 'DejaVu Sans Mono', 'Bitstream Vera Sans Mono', 'Computer Modern Typewriter', 'Andale Mono', 'Nimbus Mono L', 'Courier New', 'Courier', 'Fixed', 'Terminal', monospace; text-anchor: end; fill: #969da5" x="34.241484" y="143.215771" transform="rotate(-0 34.241484 143.215771)">40</text>
     </g>
    </g>
    <g id="ytick_6">
     <g id="line2d_15">
      <path d="M 41.241484 104.170288 
L 521.121484 104.170288 
" clip-path="url(#p6b3f9d1754)" style="fill: none; stroke: #2b3138; stroke-width: 0.7; stroke-linecap: square"/>
     </g>
     <g id="line2d_16">
      <g>
       <use xlink:href="#md01521d059" x="41.241484" y="104.170288" style="fill: #969da5; stroke: #969da5; stroke-width: 0.8"/>
      </g>
     </g>
     <g id="text_11">
      <text style="font-size: 10px; font-family: 'DejaVu Sans Mono', 'Bitstream Vera Sans Mono', 'Computer Modern Typewriter', 'Andale Mono', 'Nimbus Mono L', 'Courier New', 'Courier', 'Fixed', 'Terminal', monospace; text-anchor: end; fill: #969da5" x="34.241484" y="107.969116" transform="rotate(-0 34.241484 107.969116)">50</text>
     </g>
    </g>
    <g id="ytick_7">
     <g id="line2d_17">
      <path d="M 41.241484 68.923633 
L 521.121484 68.923633 
" clip-path="url(#p6b3f9d1754)" style="fill: none; stroke: #2b3138; stroke-width: 0.7; stroke-linecap: square"/>
     </g>
     <g id="line2d_18">
      <g>
       <use xlink:href="#md01521d059" x="41.241484" y="68.923633" style="fill: #969da5; stroke: #969da5; stroke-width: 0.8"/>
      </g>
     </g>
     <g id="text_12">
      <text style="font-size: 10px; font-family: 'DejaVu Sans Mono', 'Bitstream Vera Sans Mono', 'Computer Modern Typewriter', 'Andale Mono', 'Nimbus Mono L', 'Courier New', 'Courier', 'Fixed', 'Terminal', monospace; text-anchor: end; fill: #969da5" x="34.241484" y="72.722461" transform="rotate(-0 34.241484 72.722461)">60</text>
     </g>
    </g>
    <g id="ytick_8">
     <g id="line2d_19">
      <path d="M 41.241484 33.676978 
L 521.121484 33.676978 
" clip-path="url(#p6b3f9d1754)" style="fill: none; stroke: #2b3138; stroke-width: 0.7; stroke-linecap: square"/>
     </g>
     <g id="line2d_20">
      <g>
       <use xlink:href="#md01521d059" x="41.241484" y="33.676978" style="fill: #969da5; stroke: #969da5; stroke-width: 0.8"/>
      </g>
     </g>
     <g id="text_13">
      <text style="font-size: 10px; font-family: 'DejaVu Sans Mono', 'Bitstream Vera Sans Mono', 'Computer Modern Typewriter', 'Andale Mono', 'Nimbus Mono L', 'Courier New', 'Courier', 'Fixed', 'Terminal', monospace; text-anchor: end; fill: #969da5" x="34.241484" y="37.475806" transform="rotate(-0 34.241484 37.475806)">70</text>
     </g>
    </g>
    <g id="text_14">
     <text style="font-size: 11px; font-family: 'DejaVu Sans Mono', 'Bitstream Vera Sans Mono', 'Computer Modern Typewriter', 'Andale Mono', 'Nimbus Mono L', 'Courier New', 'Courier', 'Fixed', 'Terminal', monospace; text-anchor: middle; fill: #dfe2e5" x="15.558281" y="152.891562" transform="rotate(-90 15.558281 152.891562)">decode tokens/s (median, band = rep min–max)</text>
    </g>
   </g>
   <g id="line2d_21">
    <path d="M 63.054212 44.800822 
L 208.472393 46.066177 
L 353.890575 51.011282 
L 499.308757 79.145162 
" clip-path="url(#p6b3f9d1754)" style="fill: none; stroke: #7aa7c7; stroke-width: 2.2; stroke-linecap: square"/>
    <defs>
     <path id="m5dde4acab5" d="M 0 2 
C 0.530406 2 1.03916 1.789267 1.414214 1.414214 
C 1.789267 1.03916 2 0.530406 2 0 
C 2 -0.530406 1.789267 -1.03916 1.414214 -1.414214 
C 1.03916 -1.789267 0.530406 -2 0 -2 
C -0.530406 -2 -1.03916 -1.789267 -1.414214 -1.414214 
C -1.789267 -1.03916 -2 -0.530406 -2 0 
C -2 0.530406 -1.789267 1.03916 -1.414214 1.414214 
C -1.03916 1.789267 -0.530406 2 0 2 
z
" style="stroke: #7aa7c7"/>
    </defs>
    <g clip-path="url(#p6b3f9d1754)">
     <use xlink:href="#m5dde4acab5" x="63.054212" y="44.800822" style="fill: #7aa7c7; stroke: #7aa7c7"/>
     <use xlink:href="#m5dde4acab5" x="208.472393" y="46.066177" style="fill: #7aa7c7; stroke: #7aa7c7"/>
     <use xlink:href="#m5dde4acab5" x="353.890575" y="51.011282" style="fill: #7aa7c7; stroke: #7aa7c7"/>
     <use xlink:href="#m5dde4acab5" x="499.308757" y="79.145162" style="fill: #7aa7c7; stroke: #7aa7c7"/>
    </g>
   </g>
   <g id="line2d_22">
    <path d="M 63.054212 30.716259 
L 208.472393 34.12461 
L 353.890575 46.968491 
L 499.308757 91.728218 
" clip-path="url(#p6b3f9d1754)" style="fill: none; stroke: #8e959c; stroke-width: 2.2; stroke-linecap: square"/>
    <defs>
     <path id="m73be640c25" d="M 0 2 
C 0.530406 2 1.03916 1.789267 1.414214 1.414214 
C 1.789267 1.03916 2 0.530406 2 0 
C 2 -0.530406 1.789267 -1.03916 1.414214 -1.414214 
C 1.03916 -1.789267 0.530406 -2 0 -2 
C -0.530406 -2 -1.03916 -1.789267 -1.414214 -1.414214 
C -1.789267 -1.03916 -2 -0.530406 -2 0 
C -2 0.530406 -1.789267 1.03916 -1.414214 1.414214 
C -1.03916 1.789267 -0.530406 2 0 2 
z
" style="stroke: #8e959c"/>
    </defs>
    <g clip-path="url(#p6b3f9d1754)">
     <use xlink:href="#m73be640c25" x="63.054212" y="30.716259" style="fill: #8e959c; stroke: #8e959c"/>
     <use xlink:href="#m73be640c25" x="208.472393" y="34.12461" style="fill: #8e959c; stroke: #8e959c"/>
     <use xlink:href="#m73be640c25" x="353.890575" y="46.968491" style="fill: #8e959c; stroke: #8e959c"/>
     <use xlink:href="#m73be640c25" x="499.308757" y="91.728218" style="fill: #8e959c; stroke: #8e959c"/>
    </g>
   </g>
   <g id="line2d_23">
    <path d="M 63.054212 30.723308 
L 208.472393 34.099937 
L 353.890575 47.049558 
L 499.308757 91.703546 
" clip-path="url(#p6b3f9d1754)" style="fill: none; stroke-dasharray: 8.8,4.4; stroke-dashoffset: 0; stroke: #d96560; stroke-width: 2.2"/>
    <defs>
     <path id="m21a3740c63" d="M 0 2 
C 0.530406 2 1.03916 1.789267 1.414214 1.414214 
C 1.789267 1.03916 2 0.530406 2 0 
C 2 -0.530406 1.789267 -1.03916 1.414214 -1.414214 
C 1.03916 -1.789267 0.530406 -2 0 -2 
C -0.530406 -2 -1.03916 -1.789267 -1.414214 -1.414214 
C -1.789267 -1.03916 -2 -0.530406 -2 0 
C -2 0.530406 -1.789267 1.03916 -1.414214 1.414214 
C -1.03916 1.789267 -0.530406 2 0 2 
z
" style="stroke: #d96560"/>
    </defs>
    <g clip-path="url(#p6b3f9d1754)">
     <use xlink:href="#m21a3740c63" x="63.054212" y="30.723308" style="fill: #d96560; stroke: #d96560"/>
     <use xlink:href="#m21a3740c63" x="208.472393" y="34.099937" style="fill: #d96560; stroke: #d96560"/>
     <use xlink:href="#m21a3740c63" x="353.890575" y="47.049558" style="fill: #d96560; stroke: #d96560"/>
     <use xlink:href="#m21a3740c63" x="499.308757" y="91.703546" style="fill: #d96560; stroke: #d96560"/>
    </g>
   </g>
   <g id="line2d_24">
    <path d="M 63.054212 28.64728 
L 208.472393 31.044052 
L 353.890575 39.425707 
L 499.308757 67.570161 
" clip-path="url(#p6b3f9d1754)" style="fill: none; stroke: #e07a42; stroke-width: 2.2; stroke-linecap: square"/>
    <defs>
     <path id="mfa736d8a89" d="M 0 2 
C 0.530406 2 1.03916 1.789267 1.414214 1.414214 
C 1.789267 1.03916 2 0.530406 2 0 
C 2 -0.530406 1.789267 -1.03916 1.414214 -1.414214 
C 1.03916 -1.789267 0.530406 -2 0 -2 
C -0.530406 -2 -1.03916 -1.789267 -1.414214 -1.414214 
C -1.789267 -1.03916 -2 -0.530406 -2 0 
C -2 0.530406 -1.789267 1.03916 -1.414214 1.414214 
C -1.03916 1.789267 -0.530406 2 0 2 
z
" style="stroke: #e07a42"/>
    </defs>
    <g clip-path="url(#p6b3f9d1754)">
     <use xlink:href="#mfa736d8a89" x="63.054212" y="28.64728" style="fill: #e07a42; stroke: #e07a42"/>
     <use xlink:href="#mfa736d8a89" x="208.472393" y="31.044052" style="fill: #e07a42; stroke: #e07a42"/>
     <use xlink:href="#mfa736d8a89" x="353.890575" y="39.425707" style="fill: #e07a42; stroke: #e07a42"/>
     <use xlink:href="#mfa736d8a89" x="499.308757" y="67.570161" style="fill: #e07a42; stroke: #e07a42"/>
    </g>
   </g>
   <g id="patch_3">
    <path d="M 41.241484 280.403562 
L 41.241484 25.379562 
" style="fill: none; stroke: #969da5; stroke-width: 0.8; stroke-linejoin: miter; stroke-linecap: square"/>
   </g>
   <g id="patch_4">
    <path d="M 41.241484 280.403562 
L 521.121484 280.403562 
" style="fill: none; stroke: #969da5; stroke-width: 0.8; stroke-linejoin: miter; stroke-linecap: square"/>
   </g>
   <g id="text_15">
    <text style="font-size: 9.5px; font-family: 'DejaVu Sans Mono', 'Bitstream Vera Sans Mono', 'Computer Modern Typewriter', 'Andale Mono', 'Nimbus Mono L', 'Courier New', 'Courier', 'Fixed', 'Terminal', monospace; text-anchor: middle; fill: #7aa7c7" x="63.054212" y="35.800822" transform="rotate(-0 63.054212 35.800822)">67</text>
   </g>
   <g id="text_16">
    <text style="font-size: 9.5px; font-family: 'DejaVu Sans Mono', 'Bitstream Vera Sans Mono', 'Computer Modern Typewriter', 'Andale Mono', 'Nimbus Mono L', 'Courier New', 'Courier', 'Fixed', 'Terminal', monospace; text-anchor: middle; fill: #7aa7c7" x="499.308757" y="70.145162" transform="rotate(-0 499.308757 70.145162)">57</text>
   </g>
   <g id="text_17">
    <text style="font-size: 9.5px; font-family: 'DejaVu Sans Mono', 'Bitstream Vera Sans Mono', 'Computer Modern Typewriter', 'Andale Mono', 'Nimbus Mono L', 'Courier New', 'Courier', 'Fixed', 'Terminal', monospace; text-anchor: middle; fill: #e07a42" x="63.054212" y="19.64728" transform="rotate(-0 63.054212 19.64728)">71</text>
   </g>
   <g id="text_18">
    <text style="font-size: 9.5px; font-family: 'DejaVu Sans Mono', 'Bitstream Vera Sans Mono', 'Computer Modern Typewriter', 'Andale Mono', 'Nimbus Mono L', 'Courier New', 'Courier', 'Fixed', 'Terminal', monospace; text-anchor: middle; fill: #e07a42" x="499.308757" y="58.570161" transform="rotate(-0 499.308757 58.570161)">60</text>
   </g>
   <g id="text_19">
    <text style="font-size: 9px; font-family: 'DejaVu Sans Mono', 'Bitstream Vera Sans Mono', 'Computer Modern Typewriter', 'Andale Mono', 'Nimbus Mono L', 'Courier New', 'Courier', 'Fixed', 'Terminal', monospace; fill: #d96560" transform="translate(359.890575 59.444637)">tuned fa-off sits on top of</text>
    <text style="font-size: 9px; font-family: 'DejaVu Sans Mono', 'Bitstream Vera Sans Mono', 'Computer Modern Typewriter', 'Andale Mono', 'Nimbus Mono L', 'Courier New', 'Courier', 'Fixed', 'Terminal', monospace; fill: #d96560" transform="translate(359.890575 70.247098)">stock — the geometry</text>
    <text style="font-size: 9px; font-family: 'DejaVu Sans Mono', 'Bitstream Vera Sans Mono', 'Computer Modern Typewriter', 'Andale Mono', 'Nimbus Mono L', 'Courier New', 'Courier', 'Fixed', 'Terminal', monospace; fill: #d96560" transform="translate(359.890575 81.049558)">changes nothing here</text>
   </g>
   <g id="legend_1">
    <g id="line2d_25">
     <path d="M 49.521484 225.144625 
L 58.721484 225.144625 
L 67.921484 225.144625 
" style="fill: none; stroke: #7aa7c7; stroke-width: 2.2; stroke-linecap: square"/>
     <g>
      <use xlink:href="#m5dde4acab5" x="58.721484" y="225.144625" style="fill: #7aa7c7; stroke: #7aa7c7"/>
     </g>
    </g>
    <g id="text_20">
     <text style="font-size: 9.2px; font-family: 'DejaVu Sans Mono', 'Bitstream Vera Sans Mono', 'Computer Modern Typewriter', 'Andale Mono', 'Nimbus Mono L', 'Courier New', 'Courier', 'Fixed', 'Terminal', monospace; text-anchor: start; fill: #dfe2e5" x="75.281484" y="228.364625" transform="rotate(-0 75.281484 228.364625)">ollama v0.32.1 · pure defaults</text>
    </g>
    <g id="line2d_26">
     <path d="M 49.521484 238.994219 
L 58.721484 238.994219 
L 67.921484 238.994219 
" style="fill: none; stroke: #8e959c; stroke-width: 2.2; stroke-linecap: square"/>
     <g>
      <use xlink:href="#m73be640c25" x="58.721484" y="238.994219" style="fill: #8e959c; stroke: #8e959c"/>
     </g>
    </g>
    <g id="text_21">
     <text style="font-size: 9.2px; font-family: 'DejaVu Sans Mono', 'Bitstream Vera Sans Mono', 'Computer Modern Typewriter', 'Andale Mono', 'Nimbus Mono L', 'Courier New', 'Courier', 'Fixed', 'Terminal', monospace; text-anchor: start; fill: #dfe2e5" x="75.281484" y="242.214219" transform="rotate(-0 75.281484 242.214219)">llama.cpp · stock llama-server (fa off)</text>
    </g>
    <g id="line2d_27">
     <path d="M 49.521484 252.843812 
L 58.721484 252.843812 
L 67.921484 252.843812 
" style="fill: none; stroke-dasharray: 8.8,4.4; stroke-dashoffset: 0; stroke: #d96560; stroke-width: 2.2"/>
     <g>
      <use xlink:href="#m21a3740c63" x="58.721484" y="252.843812" style="fill: #d96560; stroke: #d96560"/>
     </g>
    </g>
    <g id="text_22">
     <text style="font-size: 9.2px; font-family: 'DejaVu Sans Mono', 'Bitstream Vera Sans Mono', 'Computer Modern Typewriter', 'Andale Mono', 'Nimbus Mono L', 'Courier New', 'Courier', 'Fixed', 'Terminal', monospace; text-anchor: start; fill: #dfe2e5" x="75.281484" y="256.063812" transform="rotate(-0 75.281484 256.063812)">llama.cpp · TUNED fa-off (b8192/ub512)</text>
    </g>
    <g id="line2d_28">
     <path d="M 49.521484 266.693406 
L 58.721484 266.693406 
L 67.921484 266.693406 
" style="fill: none; stroke: #e07a42; stroke-width: 2.2; stroke-linecap: square"/>
     <g>
      <use xlink:href="#mfa736d8a89" x="58.721484" y="266.693406" style="fill: #e07a42; stroke: #e07a42"/>
     </g>
    </g>
    <g id="text_23">
     <text style="font-size: 9.2px; font-family: 'DejaVu Sans Mono', 'Bitstream Vera Sans Mono', 'Computer Modern Typewriter', 'Andale Mono', 'Nimbus Mono L', 'Courier New', 'Courier', 'Fixed', 'Terminal', monospace; text-anchor: start; fill: #dfe2e5" x="75.281484" y="269.913406" transform="rotate(-0 75.281484 269.913406)">llama.cpp · funnel winner (fa on, f16 KV)</text>
    </g>
   </g>
  </g>
 </g>
 <defs>
  <clipPath id="p6b3f9d1754">
   <rect x="41.241484" y="25.379562" width="479.88" height="255.024"/>
  </clipPath>
 </defs>
</svg>
